<?xml version="1.0" standalone="no"?>
<!DOCTYPE svg PUBLIC "-//W3C//DTD SVG 20010904//EN"
 "http://www.w3.org/TR/2001/REC-SVG-20010904/DTD/svg10.dtd">
<svg version="1.0" xmlns="http://www.w3.org/2000/svg"
 width="16.000000pt" height="16.000000pt" viewBox="0 0 16.000000 16.000000"
 preserveAspectRatio="xMidYMid meet">
<metadata>
Created by potrace 1.11, written by Peter Selinger 2001-2013
</metadata>
<g transform="translate(0.000000,16.000000) scale(0.012500,-0.012500)"
fill="#000000" stroke="none">
<path d="M672 1273 c-31 -6 -640 -615 -658 -659 -17 -40 -17 -57 -4 -105 8
-28 62 -88 233 -259 122 -122 236 -229 254 -236 41 -18 75 -18 118 0 45 19
632 607 651 652 11 25 14 91 14 275 0 357 17 340 -342 338 -133 -1 -253 -4
-266 -6z m447 -91 c19 -9 44 -30 55 -45 19 -26 21 -42 21 -215 0 -174 -2 -190
-23 -233 -20 -42 -171 -202 -247 -261 -164 -130 -413 -194 -564 -143 -41 13
-73 36 -134 94 -44 42 -86 90 -93 108 -19 43 -18 107 2 146 19 38 473 489 525
523 58 36 94 42 264 43 134 1 166 -2 194 -17z"/>
<path d="M953 1063 c-67 -55 -13 -160 71 -139 51 13 72 102 32 135 -26 21 -79
23 -103 4z"/>
</g>
</svg>
